<mxfile host="app.diagrams.net" modified="2023-10-11T07:43:58.806Z" agent="Mozilla/5.0 (Windows NT 10.0; Win64; x64) AppleWebKit/537.36 (KHTML, like Gecko) Chrome/117.0.0.0 Safari/537.36 Edg/117.0.2045.60" etag="IQtx-nQ7vRLpuKOl0KJg" version="22.0.4" type="github">
  <diagram id="C5RBs43oDa-KdzZeNtuy" name="Page-1">
    <mxGraphModel dx="1042" dy="582" grid="1" gridSize="10" guides="1" tooltips="1" connect="1" arrows="1" fold="1" page="1" pageScale="1" pageWidth="827" pageHeight="1169" math="0" shadow="0">
      <root>
        <mxCell id="WIyWlLk6GJQsqaUBKTNV-0" />
        <mxCell id="WIyWlLk6GJQsqaUBKTNV-1" parent="WIyWlLk6GJQsqaUBKTNV-0" />
        <mxCell id="kpfPfC60SvLyRLPd567x-3" value="" style="edgeStyle=orthogonalEdgeStyle;rounded=0;orthogonalLoop=1;jettySize=auto;html=1;" edge="1" parent="WIyWlLk6GJQsqaUBKTNV-1" source="kpfPfC60SvLyRLPd567x-0" target="kpfPfC60SvLyRLPd567x-2">
          <mxGeometry relative="1" as="geometry" />
        </mxCell>
        <mxCell id="kpfPfC60SvLyRLPd567x-0" value="createBean" style="rounded=0;whiteSpace=wrap;html=1;" vertex="1" parent="WIyWlLk6GJQsqaUBKTNV-1">
          <mxGeometry x="30" y="110" width="80" height="30" as="geometry" />
        </mxCell>
        <mxCell id="kpfPfC60SvLyRLPd567x-5" value="" style="edgeStyle=orthogonalEdgeStyle;rounded=0;orthogonalLoop=1;jettySize=auto;html=1;" edge="1" parent="WIyWlLk6GJQsqaUBKTNV-1" source="kpfPfC60SvLyRLPd567x-2" target="kpfPfC60SvLyRLPd567x-4">
          <mxGeometry relative="1" as="geometry" />
        </mxCell>
        <mxCell id="kpfPfC60SvLyRLPd567x-7" value="一定条件" style="edgeLabel;html=1;align=center;verticalAlign=middle;resizable=0;points=[];" vertex="1" connectable="0" parent="kpfPfC60SvLyRLPd567x-5">
          <mxGeometry x="-0.044" relative="1" as="geometry">
            <mxPoint as="offset" />
          </mxGeometry>
        </mxCell>
        <mxCell id="kpfPfC60SvLyRLPd567x-14" value="" style="edgeStyle=orthogonalEdgeStyle;rounded=0;orthogonalLoop=1;jettySize=auto;html=1;" edge="1" parent="WIyWlLk6GJQsqaUBKTNV-1" source="kpfPfC60SvLyRLPd567x-2" target="kpfPfC60SvLyRLPd567x-13">
          <mxGeometry relative="1" as="geometry" />
        </mxCell>
        <mxCell id="kpfPfC60SvLyRLPd567x-2" value="resolveBeforeInstantiation(beanName, mbd)" style="whiteSpace=wrap;html=1;rounded=0;" vertex="1" parent="WIyWlLk6GJQsqaUBKTNV-1">
          <mxGeometry x="130" y="100" width="290" height="50" as="geometry" />
        </mxCell>
        <mxCell id="kpfPfC60SvLyRLPd567x-9" value="" style="edgeStyle=orthogonalEdgeStyle;rounded=0;orthogonalLoop=1;jettySize=auto;html=1;" edge="1" parent="WIyWlLk6GJQsqaUBKTNV-1" source="kpfPfC60SvLyRLPd567x-4" target="kpfPfC60SvLyRLPd567x-8">
          <mxGeometry relative="1" as="geometry" />
        </mxCell>
        <mxCell id="kpfPfC60SvLyRLPd567x-10" value="一定条件" style="edgeLabel;html=1;align=center;verticalAlign=middle;resizable=0;points=[];" vertex="1" connectable="0" parent="kpfPfC60SvLyRLPd567x-9">
          <mxGeometry x="-0.168" y="3" relative="1" as="geometry">
            <mxPoint x="-3" y="-7" as="offset" />
          </mxGeometry>
        </mxCell>
        <mxCell id="kpfPfC60SvLyRLPd567x-26" value="" style="edgeStyle=orthogonalEdgeStyle;rounded=0;orthogonalLoop=1;jettySize=auto;html=1;" edge="1" parent="WIyWlLk6GJQsqaUBKTNV-1" source="kpfPfC60SvLyRLPd567x-4" target="kpfPfC60SvLyRLPd567x-25">
          <mxGeometry relative="1" as="geometry" />
        </mxCell>
        <mxCell id="kpfPfC60SvLyRLPd567x-4" value="调用实例化前处理器" style="whiteSpace=wrap;html=1;rounded=0;" vertex="1" parent="WIyWlLk6GJQsqaUBKTNV-1">
          <mxGeometry x="490" y="100" width="150" height="50" as="geometry" />
        </mxCell>
        <mxCell id="kpfPfC60SvLyRLPd567x-28" value="" style="edgeStyle=orthogonalEdgeStyle;rounded=0;orthogonalLoop=1;jettySize=auto;html=1;" edge="1" parent="WIyWlLk6GJQsqaUBKTNV-1" source="kpfPfC60SvLyRLPd567x-8" target="kpfPfC60SvLyRLPd567x-27">
          <mxGeometry relative="1" as="geometry" />
        </mxCell>
        <mxCell id="kpfPfC60SvLyRLPd567x-8" value="调用初始化后处理器" style="whiteSpace=wrap;html=1;rounded=0;" vertex="1" parent="WIyWlLk6GJQsqaUBKTNV-1">
          <mxGeometry x="490" y="180" width="150" height="50" as="geometry" />
        </mxCell>
        <mxCell id="kpfPfC60SvLyRLPd567x-16" value="" style="edgeStyle=orthogonalEdgeStyle;rounded=0;orthogonalLoop=1;jettySize=auto;html=1;exitX=0.5;exitY=1;exitDx=0;exitDy=0;" edge="1" parent="WIyWlLk6GJQsqaUBKTNV-1" source="kpfPfC60SvLyRLPd567x-13" target="kpfPfC60SvLyRLPd567x-15">
          <mxGeometry relative="1" as="geometry" />
        </mxCell>
        <mxCell id="kpfPfC60SvLyRLPd567x-17" value="空" style="edgeLabel;html=1;align=center;verticalAlign=middle;resizable=0;points=[];" vertex="1" connectable="0" parent="kpfPfC60SvLyRLPd567x-16">
          <mxGeometry x="-0.2713" y="1" relative="1" as="geometry">
            <mxPoint as="offset" />
          </mxGeometry>
        </mxCell>
        <mxCell id="kpfPfC60SvLyRLPd567x-23" style="edgeStyle=orthogonalEdgeStyle;rounded=0;orthogonalLoop=1;jettySize=auto;html=1;entryX=0.21;entryY=0.338;entryDx=0;entryDy=0;entryPerimeter=0;" edge="1" parent="WIyWlLk6GJQsqaUBKTNV-1" source="kpfPfC60SvLyRLPd567x-13" target="kpfPfC60SvLyRLPd567x-21">
          <mxGeometry relative="1" as="geometry">
            <mxPoint x="170" y="410" as="targetPoint" />
            <Array as="points">
              <mxPoint x="171" y="210" />
              <mxPoint x="171" y="410" />
            </Array>
          </mxGeometry>
        </mxCell>
        <mxCell id="kpfPfC60SvLyRLPd567x-24" value="非空直接返回" style="edgeLabel;html=1;align=center;verticalAlign=middle;resizable=0;points=[];" vertex="1" connectable="0" parent="kpfPfC60SvLyRLPd567x-23">
          <mxGeometry x="-0.1816" relative="1" as="geometry">
            <mxPoint as="offset" />
          </mxGeometry>
        </mxCell>
        <mxCell id="kpfPfC60SvLyRLPd567x-13" value="返回obj是否null" style="rhombus;whiteSpace=wrap;html=1;rounded=0;" vertex="1" parent="WIyWlLk6GJQsqaUBKTNV-1">
          <mxGeometry x="226.25" y="180" width="97.5" height="60" as="geometry" />
        </mxCell>
        <mxCell id="kpfPfC60SvLyRLPd567x-22" value="" style="edgeStyle=orthogonalEdgeStyle;rounded=0;orthogonalLoop=1;jettySize=auto;html=1;" edge="1" parent="WIyWlLk6GJQsqaUBKTNV-1" source="kpfPfC60SvLyRLPd567x-15" target="kpfPfC60SvLyRLPd567x-21">
          <mxGeometry relative="1" as="geometry" />
        </mxCell>
        <mxCell id="kpfPfC60SvLyRLPd567x-15" value="继续后续执行doCreateBean" style="whiteSpace=wrap;html=1;rounded=0;" vertex="1" parent="WIyWlLk6GJQsqaUBKTNV-1">
          <mxGeometry x="215" y="280" width="120" height="60" as="geometry" />
        </mxCell>
        <mxCell id="kpfPfC60SvLyRLPd567x-21" value="" style="shape=waypoint;sketch=0;size=6;pointerEvents=1;points=[];fillColor=default;resizable=0;rotatable=0;perimeter=centerPerimeter;snapToPoint=1;rounded=0;" vertex="1" parent="WIyWlLk6GJQsqaUBKTNV-1">
          <mxGeometry x="265" y="400" width="20" height="20" as="geometry" />
        </mxCell>
        <mxCell id="kpfPfC60SvLyRLPd567x-25" value="依次执行所有实例化processor，&lt;br&gt;若当前processor返回值非空，直接返回" style="whiteSpace=wrap;html=1;rounded=0;align=left;" vertex="1" parent="WIyWlLk6GJQsqaUBKTNV-1">
          <mxGeometry x="660" y="100" width="180" height="50" as="geometry" />
        </mxCell>
        <mxCell id="kpfPfC60SvLyRLPd567x-27" value="依次执行所有初始化processor，&lt;br style=&quot;border-color: var(--border-color);&quot;&gt;若当前processor返回值非空，直接返回" style="whiteSpace=wrap;html=1;rounded=0;align=left;" vertex="1" parent="WIyWlLk6GJQsqaUBKTNV-1">
          <mxGeometry x="660" y="175" width="180" height="60" as="geometry" />
        </mxCell>
      </root>
    </mxGraphModel>
  </diagram>
</mxfile>
